<svg width="476" height="112" viewBox="0 0 476 112" fill="none" xmlns="http://www.w3.org/2000/svg">
<path fill-rule="evenodd" clip-rule="evenodd" d="M32.1734 8.70723C38.9972 8.71102 45.6951 11.5833 50.4086 16.7791C54.4488 21.2326 56.771 27.3008 56.9683 33.5327L56.9473 34.0108C56.8634 35.9232 58.4556 37.177 60.3351 37.244L416.762 36.8001C417.702 36.8336 418.663 36.389 419.154 35.9277C419.89 35.2357 420.156 34.5269 420.198 33.5708L420.219 33.0927C420.043 26.3827 422.91 20.0206 427.594 15.1598C432.279 10.299 438.513 7.64815 445.112 7.40453C451.936 7.40832 458.634 10.2807 463.347 15.4764C467.612 20.1774 469.71 25.9981 469.662 32.4607C469.55 40.3575 465.926 47.8897 459.608 52.4529C459.364 52.6823 459.281 52.7596 459.233 52.8548C459.137 53.0465 459.18 53.3109 458.318 55.0404C458.276 55.9966 458.928 57.217 459.847 57.7286C465.991 62.4965 469.905 69.8185 469.794 77.7153C469.656 91.5966 458.57 102.933 445.147 103.173C438.323 103.169 431.625 100.297 426.912 95.1009C422.872 90.6474 420.549 84.5792 420.352 78.3473C420.436 76.435 418.844 75.1811 416.964 75.1142L59.8008 76.25C57.9212 76.183 56.6731 77.8145 56.5892 79.7268C56.2265 93.3607 45.1404 104.697 31.9628 104.706C25.139 104.702 18.4411 101.83 13.7275 96.6344C9.46287 91.9335 7.36514 86.1127 7.4133 79.6501C7.52436 71.7533 11.149 64.2211 17.4672 59.6579C18.2035 58.9659 18.7153 58.0265 18.7572 57.0703C18.7992 56.1141 18.5957 55.3886 17.9223 54.6464L17.4734 54.1515C11.3293 49.3836 7.4149 42.0616 7.52596 34.1648C7.19434 20.2667 18.2805 8.93032 32.1734 8.70723Z" fill="#F7F7F7"/>
<path fill-rule="evenodd" clip-rule="evenodd" d="M10.054 56.9995C3.89738 63.2444 0.497121 71.024 0.344111 79.877C0.233042 87.7738 3.18666 95.5405 8.57358 101.478C14.4094 107.911 22.9449 111.807 31.8936 111.647C47.6661 111.491 61.389 99.0513 63.0208 83.3079L413.34 82.6463C413.986 89.373 416.778 95.458 421.267 100.406C427.103 106.839 435.638 110.735 444.362 110.327C461.545 110.221 475.597 95.6391 475.657 78.1637C475.565 69.5414 472.162 61.28 466.06 55.5559C472.217 49.311 475.617 41.5314 475.77 32.6784C475.881 24.7816 472.927 17.015 467.541 11.0769C461.705 4.64409 453.169 0.748585 444.22 0.908475C435.742 1.08511 427.831 4.39446 421.92 10.4086C416.745 15.7308 413.387 22.5542 412.827 29.9562L62.7537 30.3871C62.1075 23.6603 59.3364 17.0973 54.6228 11.9015C48.787 5.46866 40.2515 1.57317 31.3028 1.73306C14.8151 2.10309 0.538377 16.4382 0.702236 34.161C0.570196 42.5359 3.97272 50.7973 10.054 56.9995ZM50.4086 16.7791C45.6951 11.5833 38.9972 8.71102 32.1734 8.70723C18.2805 8.93032 7.19434 20.2667 7.52596 34.1648C7.4149 42.0616 11.3293 49.3836 17.4734 54.1515L17.9223 54.6464C18.5957 55.3886 18.7992 56.1141 18.7572 57.0703C18.7153 58.0265 18.2035 58.9659 17.4672 59.6579C11.149 64.2211 7.52436 71.7533 7.4133 79.6501C7.36514 86.1127 9.46287 91.9335 13.7275 96.6344C18.4411 101.83 25.139 104.702 31.9628 104.706C45.1404 104.697 56.2265 93.3607 56.5892 79.7268C56.6731 77.8145 57.9212 76.183 59.8008 76.25L416.964 75.1142C418.844 75.1811 420.436 76.435 420.352 78.3473C420.549 84.5792 422.872 90.6474 426.912 95.1009C431.625 100.297 438.323 103.169 445.147 103.173C458.57 102.933 469.656 91.5966 469.794 77.7153C469.905 69.8185 465.991 62.4965 459.847 57.7286C458.928 57.217 458.276 55.9966 458.318 55.0404C459.18 53.3109 459.137 53.0465 459.233 52.8548C459.281 52.7596 459.364 52.6823 459.608 52.4529C465.926 47.8897 469.55 40.3575 469.662 32.4607C469.71 25.9981 467.612 20.1774 463.347 15.4764C458.634 10.2807 451.936 7.40832 445.112 7.40453C438.513 7.64815 432.279 10.299 427.594 15.1598C422.91 20.0206 420.043 26.3827 420.219 33.0927L420.198 33.5708C420.156 34.5269 419.89 35.2357 419.154 35.9277C418.663 36.389 417.702 36.8336 416.762 36.8001L60.3351 37.244C58.4556 37.177 56.8634 35.9232 56.9473 34.0108L56.9683 33.5327C56.771 27.3008 54.4488 21.2326 50.4086 16.7791Z" fill="#F7F7F7"/>
<path fill-rule="evenodd" clip-rule="evenodd" d="M10.054 56.9995C3.89738 63.2444 0.497121 71.024 0.344111 79.877C0.233042 87.7738 3.18666 95.5405 8.57358 101.478C14.4094 107.911 22.9449 111.807 31.8936 111.647C47.6661 111.491 61.389 99.0513 63.0208 83.3079L413.34 82.6463C413.986 89.373 416.778 95.458 421.267 100.406C427.103 106.839 435.638 110.735 444.362 110.327C461.545 110.221 475.597 95.6391 475.657 78.1637C475.565 69.5414 472.162 61.28 466.06 55.5559C472.217 49.311 475.617 41.5314 475.77 32.6784C475.881 24.7816 472.927 17.015 467.541 11.0769C461.705 4.64409 453.169 0.748585 444.22 0.908475C435.742 1.08511 427.831 4.39446 421.92 10.4086C416.745 15.7308 413.387 22.5542 412.827 29.9562L62.7537 30.3871C62.1075 23.6603 59.3364 17.0973 54.6228 11.9015C48.787 5.46866 40.2515 1.57317 31.3028 1.73306C14.8151 2.10309 0.538377 16.4382 0.702236 34.161C0.570196 42.5359 3.97272 50.7973 10.054 56.9995ZM50.4086 16.7791C45.6951 11.5833 38.9972 8.71102 32.1734 8.70723C18.2805 8.93032 7.19434 20.2667 7.52596 34.1648C7.4149 42.0616 11.3293 49.3836 17.4734 54.1515L17.9223 54.6464C18.5957 55.3886 18.7992 56.1141 18.7572 57.0703C18.7153 58.0265 18.2035 58.9659 17.4672 59.6579C11.149 64.2211 7.52436 71.7533 7.4133 79.6501C7.36514 86.1127 9.46287 91.9335 13.7275 96.6344C18.4411 101.83 25.139 104.702 31.9628 104.706C45.1404 104.697 56.2265 93.3607 56.5892 79.7268C56.6731 77.8145 57.9212 76.183 59.8008 76.25L416.964 75.1142C418.844 75.1811 420.436 76.435 420.352 78.3473C420.549 84.5792 422.872 90.6474 426.912 95.1009C431.625 100.297 438.323 103.169 445.147 103.173C458.57 102.933 469.656 91.5966 469.794 77.7153C469.905 69.8185 465.991 62.4965 459.847 57.7286C458.928 57.217 458.276 55.9966 458.318 55.0404C459.18 53.3109 459.137 53.0465 459.233 52.8548C459.281 52.7596 459.364 52.6823 459.608 52.4529C465.926 47.8897 469.55 40.3575 469.662 32.4607C469.71 25.9981 467.612 20.1774 463.347 15.4764C458.634 10.2807 451.936 7.40832 445.112 7.40453C438.513 7.64815 432.279 10.299 427.594 15.1598C422.91 20.0206 420.043 26.3827 420.219 33.0927L420.198 33.5708C420.156 34.5269 419.89 35.2357 419.154 35.9277C418.663 36.389 417.702 36.8336 416.762 36.8001L60.3351 37.244C58.4556 37.177 56.8634 35.9232 56.9473 34.0108L56.9683 33.5327C56.771 27.3008 54.4488 21.2326 50.4086 16.7791Z" fill="black"/>
</svg>
