<svg width="16" height="16" viewBox="0 0 16 16" fill="none" xmlns="http://www.w3.org/2000/svg">
<path d="M11.0359 9.73175C11.6218 8.75866 11.9656 7.60415 11.9656 6.36304C11.9656 2.89538 9.30542 0.083313 6.02417 0.083313C2.73901 0.083313 0.0788574 2.89538 0.0788574 6.36304C0.0788574 9.83071 2.73901 12.6428 6.02026 12.6428C7.21167 12.6428 8.32104 12.2717 9.25073 11.6367L9.52026 11.4388L13.7625 15.9166L15.0789 14.5024L10.8406 10.0245L11.0359 9.73175ZM9.35229 2.85415C10.239 3.79013 10.7273 5.03535 10.7273 6.35892C10.7273 7.68249 10.239 8.92771 9.35229 9.8637C8.46558 10.7997 7.28589 11.3151 6.03198 11.3151C4.77808 11.3151 3.59839 10.7997 2.71167 9.8637C1.82495 8.92771 1.33667 7.68249 1.33667 6.35892C1.33667 5.03535 1.82495 3.79013 2.71167 2.85415C3.59839 1.91817 4.77808 1.40276 6.03198 1.40276C7.28589 1.40276 8.46558 1.91817 9.35229 2.85415Z" fill="black"/>
</svg>
